{"title":"Daruvu (2012) Telugu Movie DVDRip x264 - Exclusive","uid":7948781,"size":1573531339,"categoryP":"video","categoryS":"movies","magnet":"?xt=urn:btih:33c325f127c4a35d8682a2235a45c4f568335c15&amp;dn=Daruvu+%282012%29+Telugu+Movie+DVDRip+x264+-+Exclusive&amp;tr=udp%3A%2F%2Ftracker.openbittorrent.com%3A80&amp;tr=udp%3A%2F%2Fopen.demonii.com%3A1337&amp;tr=udp%3A%2F%2Ftracker.coppersurfer.tk%3A6969&amp;tr=udp%3A%2F%2Fexodus.desync.com%3A6969","seeders":2,"leechers":1,"uploader":"tykoon123","files":-1,"time":1356201545,"description":"Poster: &lt;a href=&quot;\nhttp://imgr.us/images/bqdow0748ouaav7nxoye.jpg&quot; rel=&quot;nofollow&quot; target=&quot;_NEW&quot;&gt;\nhttp://imgr.us/images/bqdow0748ouaav7nxoye.jpg&lt;/a&gt;\n\nInfo:\n\nFormat : Matroska\nFormat version : Version 2\nFile size : 1.45 GiB\nDuration : 2h 41mn\nOverall bit rate : 1 281 Kbps\nEncoded date : UTC 2012-12-22 11:12:43\nWriting application : mkvmerge v5.8.0 ('No Sleep / Pillow') built on Sep 2 2012 15:37:04\nWriting library : libebml v1.2.3 + libmatroska v1.3.0\n\nVideo\nID : 1\nFormat : AVC\nFormat/Info : Advanced Video Codec\nFormat profile : &lt;a class=&quot;__cf_email__&quot; href=&quot;/cdn-cgi/l/email-protection&quot; data-cfemail=&quot;5c14353b341c1068726d&quot;&gt;[email&amp;#160;protected]&lt;/a&gt;&lt;script cf-hash='f9e31' type=&quot;text/javascript&quot;&gt;\n/* &lt;![CDATA[ */!function(){try{var t=&quot;currentScript&quot;in document?document.currentScript:function(){for(var t=document.getElementsByTagName(&quot;script&quot;),e=t.length;e--;)if(t[e].getAttribute(&quot;cf-hash&quot;))return t[e]}();if(t&amp;&amp;t.previousSibling){var e,r,n,i,c=t.previousSibling,a=c.getAttribute(&quot;data-cfemail&quot;);if(a){for(e=&quot;&quot;,r=parseInt(a.substr(0,2),16),n=2;a.length-n;n+=2)i=parseInt(a.substr(n,2),16)^r,e+=String.fromCharCode(i);e=document.createTextNode(e),c.parentNode.replaceChild(e,c)}}}catch(u){}}();/* ]]&gt; */&lt;/script&gt;\nFormat settings, CABAC : Yes\nFormat settings, ReFrames : 9 frames\nCodec ID : V_MPEG4/ISO/AVC\nDuration : 2h 41mn\nBit rate : 1 087 Kbps\nWidth : 704 pixels\nHeight : 320 pixels\nDisplay aspect ratio : 2.2:1\nFrame rate mode : Constant\nFrame rate : 23.976 fps\nColor space : YUV\nChroma subsampling : 4:2:0\nBit depth : 8 bits\nScan type : Progressive\nBits/(Pixel*Frame) : 0.201\nStream size : 1.20 GiB (83%)\nLanguage : Telugu\nDefault : Yes\nForced : No\n\nAudio\nID : 3\nFormat : AC-3\nFormat/Info : Audio Coding 3\nMode extension : CM (complete main)\nFormat settings, Endianness : Big\nCodec ID : A_AC3\nDuration : 2h 41mn\nBit rate mode : Constant\nBit rate : 192 Kbps\nChannel(s) : 6 channels\nChannel positions : Front: L C R, Side: L R, LFE\nSampling rate : 48.0 KHz\nBit depth : 16 bits\nCompression mode : Lossy\nStream size : 222 MiB (15%)\nLanguage : Telugu\nDefault : Yes\nForced : No\n\nScreens: &lt;a href=&quot;\nhttp://www.shotpix.com/images/63779721816775576401.png&quot; rel=&quot;nofollow&quot; target=&quot;_NEW&quot;&gt;\nhttp://www.shotpix.com/images/63779721816775576401.png&lt;/a&gt; &lt;a href=&quot;\nhttp://www.shotpix.com/images/25720406499169099774.png&quot; rel=&quot;nofollow&quot; target=&quot;_NEW&quot;&gt;\nhttp://www.shotpix.com/images/25720406499169099774.png&lt;/a&gt; &lt;a href=&quot;\nhttp://www.shotpix.com/images/54310082052066091914.png&quot; rel=&quot;nofollow&quot; target=&quot;_NEW&quot;&gt;\nhttp://www.shotpix.com/images/54310082052066091914.png&lt;/a&gt; &lt;a href=&quot;\nhttp://www.shotpix.com/images/73459263733391441240.png&quot; rel=&quot;nofollow&quot; target=&quot;_NEW&quot;&gt;\nhttp://www.shotpix.com/images/73459263733391441240.png&lt;/a&gt; &lt;a href=&quot;\nhttp://www.shotpix.com/images/46085942496370702467.png&quot; rel=&quot;nofollow&quot; target=&quot;_NEW&quot;&gt;\nhttp://www.shotpix.com/images/46085942496370702467.png&lt;/a&gt; &lt;a href=&quot;\nhttp://www.shotpix.com/images/33727136517079128222.png&quot; rel=&quot;nofollow&quot; target=&quot;_NEW&quot;&gt;\nhttp://www.shotpix.com/images/33727136517079128222.png&lt;/a&gt; &lt;a href=&quot;\nhttp://www.shotpix.com/images/28440560213253828724.png&quot; rel=&quot;nofollow&quot; target=&quot;_NEW&quot;&gt;\nhttp://www.shotpix.com/images/28440560213253828724.png&lt;/a&gt;\n\n\n\n\n\n\n\n","torrent":{"xt":"urn:btih:33c325f127c4a35d8682a2235a45c4f568335c15","amp;dn":"Daruvu+%282012%29+Telugu+Movie+DVDRip+x264+-+Exclusive","amp;tr":["udp%3A%2F%2Ftracker.openbittorrent.com%3A80","udp%3A%2F%2Fopen.demonii.com%3A1337","udp%3A%2F%2Ftracker.coppersurfer.tk%3A6969","udp%3A%2F%2Fexodus.desync.com%3A6969"],"infoHash":"33c325f127c4a35d8682a2235a45c4f568335c15","infoHashBuffer":{"type":"Buffer","data":[51,195,37,241,39,196,163,93,134,130,162,35,90,69,196,245,104,51,92,21]},"announce":[],"urlList":[]}}